<svg width="69" height="66" viewBox="0 0 69 66" fill="none" xmlns="http://www.w3.org/2000/svg">
<circle cx="25.3409" cy="28.4477" r="5.09849" fill="#C81912"/>
<circle cx="58.9794" cy="21.1095" r="9.70548" fill="#C81912"/>
<path fill-rule="evenodd" clip-rule="evenodd" d="M24.3019 37.8618C24.2033 37.3685 23.8425 36.9688 23.3617 36.8205C22.8218 36.654 22.2351 36.8359 21.884 37.2785L19.8662 39.8222C18.4841 41.5644 16.2682 42.3882 14.0532 42.1907C8.6244 41.7066 3.02066 42.1406 -2.5534 43.6118C-28.3339 50.4163 -43.7169 76.8316 -36.9125 102.612C-30.108 128.392 -3.69273 143.776 22.0877 136.971C47.8682 130.167 63.2513 103.751 56.4468 77.9709C52.545 63.1877 42.1948 51.8234 29.2135 46.1009C27.0516 45.1479 25.3842 43.2804 24.9214 40.9635L24.3019 37.8618Z" fill="#C81912"/>
<circle cx="16.0869" cy="4.34705" r="2.60627" transform="rotate(-22.0902 16.0869 4.34705)" fill="#C81912"/>
</svg>
